# xmcd
#
# Track frame offsets: 
#        150
#        13788
#        35242
#        48474
#        67671
#        81452
#        104424
#        117643
#        138207
#        151184
#        170917
#        186600
#        208415
#        230113
#        246305
#        275910
#        289874
#
# Disc length: 4295 seconds
#
# Revision: 0
# Processed by: cddbd v1.5.2PL0 Copyright (c) Steve Scherf et al.
# Submitted via: ExactAudioCopy v0.99pb5
#
DISCID=1610c511
DTITLE=Various Artist - Polska w piosence cd1 przytul mnie
DYEAR=2009
DGENRE=Ballad
TTITLE0=Historia jednej znajomosci - Czerwone Gitary
TTITLE1=Moja i Twoja nadzieja - Hey
TTITLE2=Muza pomyslnosci - Marek Grechuta
TTITLE3=Przytul mnie - Kombi
TTITLE4=Dwie tesknoty - Anna Jantar
TTITLE5=Zaopiekuj sie mna - Rezerwat
TTITLE6=Bialy latawiec - Wawele
TTITLE7=Autobiografia - Perfect
TTITLE8=Ballado hey - Eleni
TTITLE9=Noc ze szkla - Jacek Skubikowski
TTITLE10=Czemu nie tancze na ulicach - Ryszard Rynkowski
TTITLE11=Nietykalni - Papa Dance
TTITLE12=Tancz mnie po milosci kres - Maciej Zembaty
TTITLE13=Coz my wiemy o milosci - Trubadurzy
TTITLE14=Serce jak ogien - Daab
TTITLE15=Jesienna zaduma - Elzbieta Adamiak
TTITLE16=51 - TSA
EXTD=
EXTT0=
EXTT1=
EXTT2=
EXTT3=
EXTT4=
EXTT5=
EXTT6=
EXTT7=
EXTT8=
EXTT9=
EXTT10=
EXTT11=
EXTT12=
EXTT13=
EXTT14=
EXTT15=
EXTT16=
PLAYORDER=
